{
  "accessors": [
    {
      "bufferView": 2,
      "componentType": 5126,
      "count": 3717,
      "max": [
        122.69267272949219,
        247.12734985351563,
        52.93507385253906
      ],
      "min": [
        -460.3564758300781,
        -359.7708740234375,
        -144.45223999023438
      ],
      "type": "VEC3"
    },
    {
      "bufferView": 2,
      "byteOffset": 44604,
      "componentType": 5126,
      "count": 3717,
      "max": [
        0.9999644756317139,
        0.9996694922447205,
        0.9992386102676392
      ],
      "min": [
        -0.9999733567237854,
        -1.0,
        -0.9999699592590332
      ],
      "type": "VEC3"
    },
    {
      "bufferView": 1,
      "componentType": 5126,
      "count": 3717,
      "max": [
        1.0,
        1.0
      ],
      "min": [
        0.0,
        0.0
      ],
      "type": "VEC2"
    },
    {
      "bufferView": 0,
      "componentType": 5125,
      "count": 17046,
      "type": "SCALAR"
    },
    {
      "bufferView": 2,
      "byteOffset": 89208,
      "componentType": 5126,
      "count": 11596,
      "max": [
        -69.49117279052734,
        183.80987548828125,
        69.43404388427734
      ],
      "min": [
        -268.6544189453125,
        -394.2791442871094,
        -139.1700897216797
      ],
      "type": "VEC3"
    },
    {
      "bufferView": 2,
      "byteOffset": 228360,
      "componentType": 5126,
      "count": 11596,
      "max": [
        0.9999995827674866,
        1.0,
        1.0
      ],
      "min": [
        -0.9999944567680359,
        -1.0,
        -1.0
      ],
      "type": "VEC3"
    },
    {
      "bufferView": 1,
      "byteOffset": 29736,
      "componentType": 5126,
      "count": 11596,
      "max": [
        1.0,
        1.0
      ],
      "min": [
        0.0,
        0.0
      ],
      "type": "VEC2"
    },
    {
      "bufferView": 0,
      "byteOffset": 68184,
      "componentType": 5125,
      "count": 62400,
      "type": "SCALAR"
    },
    {
      "bufferView": 2,
      "byteOffset": 367512,
      "componentType": 5126,
      "count": 1140,
      "max": [
        -103.55615997314453,
        195.2760772705078,
        47.31558609008789
      ],
      "min": [
        -243.60531616210938,
        -69.25395202636719,
        -118.19119262695313
      ],
      "type": "VEC3"
    },
    {
      "bufferView": 2,
      "byteOffset": 381192,
      "componentType": 5126,
      "count": 1140,
      "max": [
        0.998372495174408,
        0.999298632144928,
        0.999284029006958
      ],
      "min": [
        -0.9983724355697632,
        -0.999298632144928,
        -0.9975431561470032
      ],
      "type": "VEC3"
    },
    {
      "bufferView": 1,
      "byteOffset": 122504,
      "componentType": 5126,
      "count": 1140,
      "max": [
        1.0,
        1.0
      ],
      "min": [
        0.0,
        0.0
      ],
      "type": "VEC2"
    },
    {
      "bufferView": 0,
      "byteOffset": 317784,
      "componentType": 5125,
      "count": 5040,
      "type": "SCALAR"
    },
    {
      "bufferView": 2,
      "byteOffset": 394872,
      "componentType": 5126,
      "count": 330,
      "max": [
        -153.8491668701172,
        235.08273315429688,
        26.092870712280273
      ],
      "min": [
        -183.926513671875,
        199.34132385253906,
        12.644960403442383
      ],
      "type": "VEC3"
    },
    {
      "bufferView": 2,
      "byteOffset": 398832,
      "componentType": 5126,
      "count": 330,
      "max": [
        0.9991175532341003,
        0.949562668800354,
        0.9486992955207825
      ],
      "min": [
        -0.9991170763969421,
        -0.949562668800354,
        -0.9486993551254272
      ],
      "type": "VEC3"
    },
    {
      "bufferView": 1,
      "byteOffset": 131624,
      "componentType": 5126,
      "count": 330,
      "max": [
        1.0,
        1.0
      ],
      "min": [
        0.0,
        0.0
      ],
      "type": "VEC2"
    },
    {
      "bufferView": 0,
      "byteOffset": 337944,
      "componentType": 5125,
      "count": 1440,
      "type": "SCALAR"
    },
    {
      "bufferView": 2,
      "byteOffset": 402792,
      "componentType": 5126,
      "count": 10872,
      "max": [
        -103.8171615600586,
        208.5991668701172,
        6.134038925170898
      ],
      "min": [
        -235.14231872558594,
        31.07120704650879,
        -110.32390594482422
      ],
      "type": "VEC3"
    },
    {
      "bufferView": 2,
      "byteOffset": 533256,
      "componentType": 5126,
      "count": 10872,
      "max": [
        0.9998563528060913,
        0.999103844165802,
        0.9998477101325989
      ],
      "min": [
        -0.9998563528060913,
        -0.9997243285179138,
        -0.9985045790672302
      ],
      "type": "VEC3"
    },
    {
      "bufferView": 1,
      "byteOffset": 134264,
      "componentType": 5126,
      "count": 10872,
      "max": [
        1.0020725727081299,
        0.9973483681678772
      ],
      "min": [
        -7079.5,
        -855.140625
      ],
      "type": "VEC2"
    },
    {
      "bufferView": 0,
      "byteOffset": 343704,
      "componentType": 5125,
      "count": 59088,
      "type": "SCALAR"
    },
    {
      "bufferView": 2,
      "byteOffset": 663720,
      "componentType": 5126,
      "count": 302,
      "max": [
        -134.16798400878906,
        164.3847198486328,
        19.85637664794922
      ],
      "min": [
        -202.33560180664063,
        136.55787658691406,
        5.324590682983398
      ],
      "type": "VEC3"
    },
    {
      "bufferView": 2,
      "byteOffset": 667344,
      "componentType": 5126,
      "count": 302,
      "max": [
        0.9568887948989868,
        0.9758246541023254,
        0.9945074319839478
      ],
      "min": [
        -0.9568886756896973,
        -0.9758249521255493,
        -0.9945074319839478
      ],
      "type": "VEC3"
    },
    {
      "bufferView": 1,
      "byteOffset": 221240,
      "componentType": 5126,
      "count": 302,
      "max": [
        1.0,
        1.0
      ],
      "min": [
        0.0,
        0.0
      ],
      "type": "VEC2"
    },
    {
      "bufferView": 0,
      "byteOffset": 580056,
      "componentType": 5125,
      "count": 1344,
      "type": "SCALAR"
    },
    {
      "bufferView": 2,
      "byteOffset": 670968,
      "componentType": 5126,
      "count": 10043,
      "max": [
        251.9797821044922,
        203.1824493408203,
        61.08127212524414
      ],
      "min": [
        -589.6435546875,
        -50.16033935546875,
        -102.52810668945313
      ],
      "type": "VEC3"
    },
    {
      "bufferView": 2,
      "byteOffset": 791484,
      "componentType": 5126,
      "count": 10043,
      "max": [
        1.0,
        1.0,
        1.0
      ],
      "min": [
        -1.0,
        -1.0,
        -1.0
      ],
      "type": "VEC3"
    },
    {
      "bufferView": 1,
      "byteOffset": 223656,
      "componentType": 5126,
      "count": 10043,
      "max": [
        1.0,
        1.0
      ],
      "min": [
        0.0,
        0.0
      ],
      "type": "VEC2"
    },
    {
      "bufferView": 0,
      "byteOffset": 585432,
      "componentType": 5125,
      "count": 52020,
      "type": "SCALAR"
    },
    {
      "bufferView": 2,
      "byteOffset": 912000,
      "componentType": 5126,
      "count": 2214,
      "max": [
        134.54061889648438,
        12.154719352722168,
        50.838294982910156
      ],
      "min": [
        -472.20440673828125,
        -97.06150817871094,
        -134.2398681640625
      ],
      "type": "VEC3"
    },
    {
      "bufferView": 2,
      "byteOffset": 938568,
      "componentType": 5126,
      "count": 2214,
      "max": [
        0.9999350309371948,
        0.9999350309371948,
        1.0
      ],
      "min": [
        -0.9999350309371948,
        -0.9999350309371948,
        -1.0
      ],
      "type": "VEC3"
    },
    {
      "bufferView": 1,
      "byteOffset": 304000,
      "componentType": 5126,
      "count": 2214,
      "max": [
        1.0,
        1.0
      ],
      "min": [
        0.0,
        0.0
      ],
      "type": "VEC2"
    },
    {
      "bufferView": 0,
      "byteOffset": 793512,
      "componentType": 5125,
      "count": 10440,
      "type": "SCALAR"
    }
  ],
  "asset": {
    "extras": {
      "author": "mohjustic (https://sketchfab.com/mohanm12061997)",
      "license": "CC-BY-4.0 (http://creativecommons.org/licenses/by/4.0/)",
      "source": "https://sketchfab.com/3d-models/police-officer-redford-51575ee7eda84db38abd74b82bc65435",
      "title": "Police Officer Redford"
    },
    "generator": "Sketchfab-12.68.0",
    "version": "2.0"
  },
  "bufferViews": [
    {
      "buffer": 0,
      "byteLength": 835272,
      "name": "floatBufferViews",
      "target": 34963
    },
    {
      "buffer": 0,
      "byteLength": 321712,
      "byteOffset": 835272,
      "byteStride": 8,
      "name": "floatBufferViews",
      "target": 34962
    },
    {
      "buffer": 0,
      "byteLength": 965136,
      "byteOffset": 1156984,
      "byteStride": 12,
      "name": "floatBufferViews",
      "target": 34962
    }
  ],
  "buffers": [
    {
      "byteLength": 2122120,
      "uri": "scene.bin"
    }
  ],
  "images": [
    {
      "uri": "textures/Mat.9_baseColor.png"
    }
  ],
  "materials": [
    {
      "doubleSided": true,
      "name": "Mat.1",
      "pbrMetallicRoughness": {
        "baseColorFactor": [
          0.12599421888632908,
          0.2235671497461707,
          0.30894411879115663,
          1.0
        ],
        "metallicFactor": 0.0,
        "roughnessFactor": 0.6
      }
    },
    {
      "doubleSided": true,
      "name": "Mat.2",
      "pbrMetallicRoughness": {
        "baseColorFactor": [
          0.02662527932984367,
          0.023669813986482297,
          0.018789013249199918,
          1.0
        ],
        "metallicFactor": 0.0,
        "roughnessFactor": 0.6
      }
    },
    {
      "doubleSided": true,
      "name": "Mat.8",
      "pbrMetallicRoughness": {
        "baseColorFactor": [
          0.83,
          0.650167,
          0.0,
          1.0
        ],
        "metallicFactor": 0.0,
        "roughnessFactor": 0.6
      }
    },
    {
      "doubleSided": true,
      "name": "Mat.9",
      "pbrMetallicRoughness": {
        "baseColorTexture": {
          "index": 0
        },
        "metallicFactor": 0.0,
        "roughnessFactor": 0.6
      }
    },
    {
      "doubleSided": true,
      "name": "Mat.3",
      "pbrMetallicRoughness": {
        "baseColorFactor": [
          0.01792415357985793,
          0.016826596363477407,
          0.014926266579245727,
          1.0
        ],
        "metallicFactor": 0.0,
        "roughnessFactor": 0.6
      }
    },
    {
      "doubleSided": true,
      "name": "Mat.6",
      "pbrMetallicRoughness": {
        "baseColorFactor": [
          0.956863,
          0.956863,
          0.956863,
          1.0
        ],
        "metallicFactor": 0.0,
        "roughnessFactor": 0.6
      }
    },
    {
      "doubleSided": true,
      "name": "Mat.5",
      "pbrMetallicRoughness": {
        "baseColorFactor": [
          0.811765,
          0.376471,
          0.376471,
          1.0
        ],
        "metallicFactor": 0.0
      }
    },
    {
      "doubleSided": true,
      "name": "material",
      "pbrMetallicRoughness": {
        "baseColorFactor": [
          0.28709533367522094,
          0.3959131882547921,
          0.4352731895094855,
          1.0
        ],
        "metallicFactor": 0.0,
        "roughnessFactor": 0.6
      }
    }
  ],
  "meshes": [
    {
      "name": "Subdivision_Surface_2_Mat.1_0",
      "primitives": [
        {
          "attributes": {
            "NORMAL": 1,
            "POSITION": 0,
            "TEXCOORD_0": 2
          },
          "indices": 3,
          "material": 0,
          "mode": 4
        }
      ]
    },
    {
      "name": "Subdivision_Surface_2_Mat.2_0",
      "primitives": [
        {
          "attributes": {
            "NORMAL": 5,
            "POSITION": 4,
            "TEXCOORD_0": 6
          },
          "indices": 7,
          "material": 1,
          "mode": 4
        }
      ]
    },
    {
      "name": "Subdivision_Surface_2_Mat.8_0",
      "primitives": [
        {
          "attributes": {
            "NORMAL": 9,
            "POSITION": 8,
            "TEXCOORD_0": 10
          },
          "indices": 11,
          "material": 2,
          "mode": 4
        }
      ]
    },
    {
      "name": "Subdivision_Surface_2_Mat.9_0",
      "primitives": [
        {
          "attributes": {
            "NORMAL": 13,
            "POSITION": 12,
            "TEXCOORD_0": 14
          },
          "indices": 15,
          "material": 3,
          "mode": 4
        }
      ]
    },
    {
      "name": "Subdivision_Surface_2_Mat.3_0",
      "primitives": [
        {
          "attributes": {
            "NORMAL": 17,
            "POSITION": 16,
            "TEXCOORD_0": 18
          },
          "indices": 19,
          "material": 4,
          "mode": 4
        }
      ]
    },
    {
      "name": "Subdivision_Surface_2_Mat.6_0",
      "primitives": [
        {
          "attributes": {
            "NORMAL": 21,
            "POSITION": 20,
            "TEXCOORD_0": 22
          },
          "indices": 23,
          "material": 5,
          "mode": 4
        }
      ]
    },
    {
      "name": "Subdivision_Surface_2_Mat.5_0",
      "primitives": [
        {
          "attributes": {
            "NORMAL": 25,
            "POSITION": 24,
            "TEXCOORD_0": 26
          },
          "indices": 27,
          "material": 6,
          "mode": 4
        }
      ]
    },
    {
      "name": "Subdivision_Surface_2_Mat_0",
      "primitives": [
        {
          "attributes": {
            "NORMAL": 29,
            "POSITION": 28,
            "TEXCOORD_0": 30
          },
          "indices": 31,
          "material": 7,
          "mode": 4
        }
      ]
    }
  ],
  "nodes": [
    {
      "children": [
        1
      ],
      "matrix": [
        1.0,
        0.0,
        0.0,
        0.0,
        0.0,
        2.220446049250313e-16,
        -1.0,
        0.0,
        0.0,
        1.0,
        2.220446049250313e-16,
        0.0,
        0.0,
        0.0,
        0.0,
        1.0
      ],
      "name": "Sketchfab_model"
    },
    {
      "children": [
        2
      ],
      "matrix": [
        1.0,
        0.0,
        0.0,
        0.0,
        0.0,
        0.0,
        1.0,
        0.0,
        0.0,
        -1.0,
        0.0,
        0.0,
        0.0,
        0.0,
        0.0,
        1.0
      ],
      "name": "9d73c4311baf48a4ab70b635d290240e.fbx"
    },
    {
      "children": [
        3,
        5
      ],
      "name": "RootNode"
    },
    {
      "children": [
        4
      ],
      "matrix": [
        -0.10418852082986896,
        -0.6125305743976215,
        -0.783550283999313,
        0.0,
        -0.08073743452073662,
        0.7904468960202955,
        -0.6071862739216771,
        0.0,
        0.9912750469946744,
        1.1102230246251565e-16,
        -0.13180964003329287,
        0.0,
        161.177001953125,
        961.7382202148438,
        1125.65283203125,
        1.0
      ],
      "name": "CINEMA_4D_Editor"
    },
    {
      "name": "Object_4"
    },
    {
      "children": [
        6
      ],
      "matrix": [
        1.0,
        0.0,
        0.0,
        0.0,
        0.0,
        1.0,
        0.0,
        0.0,
        0.0,
        0.0,
        1.0,
        0.0,
        0.3551989495754242,
        21.419979095458984,
        17.9281063079834,
        1.0
      ],
      "name": "police_1"
    },
    {
      "children": [
        7,
        8,
        9,
        10,
        11,
        12,
        13,
        14
      ],
      "matrix": [
        1.0,
        0.0,
        0.0,
        0.0,
        0.0,
        1.0,
        0.0,
        0.0,
        0.0,
        0.0,
        1.0,
        0.0,
        168.47669982910156,
        23.4327449798584,
        22.66909408569336,
        1.0
      ],
      "name": "Subdivision_Surface_2"
    },
    {
      "mesh": 0,
      "name": "Subdivision_Surface_2_Mat.1_0"
    },
    {
      "mesh": 1,
      "name": "Subdivision_Surface_2_Mat.2_0"
    },
    {
      "mesh": 2,
      "name": "Subdivision_Surface_2_Mat.8_0"
    },
    {
      "mesh": 3,
      "name": "Subdivision_Surface_2_Mat.9_0"
    },
    {
      "mesh": 4,
      "name": "Subdivision_Surface_2_Mat.3_0"
    },
    {
      "mesh": 5,
      "name": "Subdivision_Surface_2_Mat.6_0"
    },
    {
      "mesh": 6,
      "name": "Subdivision_Surface_2_Mat.5_0"
    },
    {
      "mesh": 7,
      "name": "Subdivision_Surface_2_Mat_0"
    }
  ],
  "samplers": [
    {
      "magFilter": 9729,
      "minFilter": 9987,
      "wrapS": 10497,
      "wrapT": 10497
    }
  ],
  "scene": 0,
  "scenes": [
    {
      "name": "Sketchfab_Scene",
      "nodes": [
        0
      ]
    }
  ],
  "textures": [
    {
      "sampler": 0,
      "source": 0
    }
  ]
}
